<svg version="1.2" baseProfile="tiny-ps" xmlns="http://www.w3.org/2000/svg" width="524" height="459"><defs><linearGradient id="grd1" gradientUnits="userSpaceOnUse" x1="10.577" y1="40.749" x2="471.91" y2="40.749"><stop offset="0" stop-color="#acb6e5"/><stop offset="1" stop-color="#acb6e5"/></linearGradient><linearGradient id="grd2" gradientUnits="userSpaceOnUse" x1="120.339" y1="322.144" x2="85.308" y2="325.126"><stop offset="0" stop-color="#7c84a6"/><stop offset=".99" stop-color="#7c84a6" stop-opacity="0"/></linearGradient><linearGradient id="grd3" gradientUnits="userSpaceOnUse" x1="140.628" y1="218.247" x2="147.391" y2="241.833"><stop offset="0" stop-color="#7c84a6"/><stop offset="1" stop-color="#7c84a6" stop-opacity="0"/></linearGradient><linearGradient id="grd4" gradientUnits="userSpaceOnUse" x1="102.611" y1="189.962" x2="92.486" y2="138.587"><stop offset="0" stop-color="#7c84a6"/><stop offset="1" stop-color="#7c84a6" stop-opacity="0"/></linearGradient><linearGradient id="grd5" gradientUnits="userSpaceOnUse" x1="396.282" y1="180.04" x2="366.282" y2="232.29"><stop offset="0" stop-color="#7c84a6"/><stop offset="1" stop-color="#7c84a6" stop-opacity="0"/></linearGradient><linearGradient id="grd6" gradientUnits="userSpaceOnUse" x1="376.261" y1="130.374" x2="390.261" y2="88.124"><stop offset="0" stop-color="#7c84a6"/><stop offset="1" stop-color="#7c84a6" stop-opacity="0"/></linearGradient></defs><style></style><g id="BACKGROUND"><path id="Shape 3" d="M292.5 452.74C165.59 452.74 63 352.22 63 227.87 63 103.52 165.59 3 292.5 3S522 103.52 522 227.87c0 124.35-102.59 224.87-229.5 224.87Z" style="fill:#424348"/></g><g id="OBJECTS"><g id="&lt;Group&gt;"><path id="&lt;Compound Path&gt;" fill-rule="evenodd" d="M471.91 229.19c0 6.54-.33 13.11-1.02 19.59-9.93 92.85-87.93 162.87-181.41 162.87-50.34 0-97.2-20.07-131.97-56.46-11.55-12.09-21.24-25.47-28.95-39.78-19.98-.33-37.53-1.53-52.68-3.6-43.2-5.88-66.54-18.69-69.6-38.34C1.3 241.64 54.7 215 109.96 196.22c5.43-29.85 18.12-57.18 36.15-80.07 30.75-39 77.13-65.13 129.9-68.94 21.06-1.5 41.88.54 61.95 6.03 6.99 1.95 11.1 9.15 9.18 16.14-1.95 7.02-9.18 11.1-16.14 9.18-17.19-4.71-35.04-6.45-53.13-5.16-37.35 2.7-70.98 18.48-96.36 42.75A156.059 156.059 0 0 0 139 187.04c29.04-8.55 55.8-14.73 71.46-18.09 4.23-.9 8.64.33 11.79 3.3 3.15 3 4.62 7.32 3.93 11.61-.06.36-5.79 36.93-6.45 74.64-.87 50.61 8.07 71.91 15.99 74.82.84.3 20.97 6.42 76.86-77.55 6.75-10.14 13.23-20.43 19.23-30.3 13.02-21.39 23.76-40.8 30.09-52.53-1.47 0-2.88-.06-4.17-.21-1.56-.15-16.02-2.07-24.06-15.81-7.11-12.18-6.27-28.65 2.52-48.99 15.15-34.98 39.48-51.36 57.18-54.99 11.07-2.25 20.79-.09 27.39 6.18 6.42 6.03 9.03 14.7 7.77 26.7-1.17 11.43-5.82 25.89-14.07 43.95-.18.42-.36.81-.57 1.2 17.91-4.05 32.46 6.69 38.58 16.32.24.39.48.81.69 1.23 12.45 25.2 18.75 52.35 18.75 80.67Zm-355.02 59.64c-2.91-8.49-5.19-17.19-6.84-26.07-2.25-12.3-3.27-24.9-3-37.71-11.13 4.05-21.33 8.19-30.45 12.36-38.25 17.52-44.73 29.7-44.37 32.01.36 2.34 8.07 9 32.79 13.95 12.51 2.52 29.37 4.59 51.87 5.46ZM378.1 143.9c12-22.02 21.09-43.68 23.79-56.46.84-3.99 1.08-7.11.57-9.12-.36-.06-.75-.12-1.23-.12-7.5 0-27.72 9.66-40.92 40.17-7.41 17.1-4.92 23.7-3.96 25.32 1.35 2.28 4.17 2.94 4.2 2.94 3.57.39 10.2-.78 17.55-2.73Zm67.56 85.29c0-23.94-5.25-46.89-15.66-68.22-2.43-3.33-6.78-6.54-13.47-3.18-4.71 2.34-12.33 5.43-20.79 8.22-2.28 3.96-3.9 6.66-4.53 7.71-2.1 4.08-17.01 32.73-37.56 66.36-6 9.81-12.45 20.04-19.23 30.21-46.35 69.72-80.58 97.59-107.67 87.69-23.46-8.55-34.32-41.31-33.27-100.2.42-22.56 2.49-44.28 4.23-59.07-22.8 5.31-44.34 11.16-63.9 17.28-.15 1.92-.27 3.87-.36 5.82-.51 10.86.09 21.6 1.74 32.04 4.89 31.11 19.05 59.88 41.31 83.19 29.76 31.17 69.87 48.36 112.98 48.36 80.04 0 146.79-59.94 155.28-139.41.6-5.55.9-11.19.9-16.8Z" style="fill:url(#grd1)"/><path id="&lt;Path&gt;" d="M128.56 315.41c-19.98-.33-37.53-1.53-52.68-3.6-5.64-10.35-11.73-22.17-11.31-24.84.15-1.05.3-2.28.45-3.6 12.51 2.52 29.37 4.59 51.87 5.46 4.84 12.58 8.73 21.44 11.67 26.58Z" style="fill:url(#grd2)"/><path d="m135.19 253.85-25.14 8.91c-2.25-12.3-3.27-24.9-3-37.71 13.44-4.68 22.36-7.7 26.76-9.06-.15 1.92-.27 3.87-.36 5.82-.51 10.86.09 21.6 1.74 32.04Z" style="fill:url(#grd3)"/><path d="M181.51 116.15A156.059 156.059 0 0 0 139 187.04c-4.24 1.24-13.92 4.3-29.04 9.18 5.43-29.85 18.12-57.18 36.15-80.07h35.4Z" style="fill:url(#grd4)"/><path d="M395.74 166.01c-2.28 3.96-3.9 6.66-4.53 7.71-2.1 4.08-17.01 32.73-37.56 66.36-6.39-4.29-14.31-9.54-21.84-14.61 13.02-21.39 23.76-40.8 30.09-52.53 10.19-.9 21.47-3.21 33.84-6.93Z" style="fill:url(#grd5)"/><path d="M428.53 85.82c-1.17 11.43-5.82 25.89-14.07 43.95-.18.42-.36.81-.57 1.2-5.08 3.54-17.01 7.85-35.79 12.93 12-22.02 21.09-43.68 23.79-56.46 3.52-1.18 7.06-2.11 10.62-2.79l16.02 1.17Z" style="fill:url(#grd6)"/></g></g></svg>